<svg width="22" height="20" viewBox="0 0 22 20" fill="none" xmlns="http://www.w3.org/2000/svg">
<path d="M16.0036 0.00416134L13.2364 0C10.1276 0 8.11851 1.9319 8.11851 4.92203V7.19141H5.33624C5.09581 7.19141 4.90112 7.37409 4.90112 7.59943V10.8875C4.90112 11.1128 5.09604 11.2953 5.33624 11.2953H8.11851V19.5922C8.11851 19.8175 8.3132 20 8.55362 20H12.1837C12.4241 20 12.6188 19.8173 12.6188 19.5922V11.2953H15.8719C16.1124 11.2953 16.3071 11.1128 16.3071 10.8875L16.3084 7.59943C16.3084 7.49123 16.2624 7.38762 16.181 7.31105C16.0995 7.23448 15.9885 7.19141 15.873 7.19141H12.6188V5.26763C12.6188 4.34298 12.8539 3.87358 14.139 3.87358L16.0031 3.87295C16.2433 3.87295 16.438 3.69027 16.438 3.46514V0.411972C16.438 0.187052 16.2436 0.00457747 16.0036 0.00416134Z" fill="white"/>
</svg>
