<svg width="23" height="20" viewBox="0 0 23 20" fill="none" xmlns="http://www.w3.org/2000/svg">
<g clip-path="url(#clip0_1_216)">
<path d="M15.3777 0H7.37556C3.69327 0 0.707153 2.79875 0.707153 6.25V13.75C0.707153 17.2013 3.69327 20 7.37556 20H15.3777C19.06 20 22.0461 17.2013 22.0461 13.75V6.25C22.0461 2.79875 19.06 0 15.3777 0ZM20.0455 13.75C20.0455 16.1625 17.9517 18.125 15.3777 18.125H7.37556C4.80156 18.125 2.70768 16.1625 2.70768 13.75V6.25C2.70768 3.8375 4.80156 1.875 7.37556 1.875H15.3777C17.9517 1.875 20.0455 3.8375 20.0455 6.25V13.75Z" fill="white"/>
<path d="M11.3766 5C8.43049 5 6.04187 7.23875 6.04187 10C6.04187 12.7613 8.43049 15 11.3766 15C14.3227 15 16.7113 12.7613 16.7113 10C16.7113 7.23875 14.3227 5 11.3766 5ZM11.3766 13.125C9.53878 13.125 8.04239 11.7225 8.04239 10C8.04239 8.27625 9.53878 6.875 11.3766 6.875C13.2144 6.875 14.7108 8.27625 14.7108 10C14.7108 11.7225 13.2144 13.125 11.3766 13.125Z" fill="white"/>
<path d="M17.1115 5.29148C17.5041 5.29148 17.8223 4.99319 17.8223 4.62523C17.8223 4.25727 17.5041 3.95898 17.1115 3.95898C16.7189 3.95898 16.4006 4.25727 16.4006 4.62523C16.4006 4.99319 16.7189 5.29148 17.1115 5.29148Z" fill="white"/>
</g>
<defs>
<clipPath id="clip0_1_216">
<rect width="21.3389" height="20" fill="white" transform="translate(0.707153)"/>
</clipPath>
</defs>
</svg>
