<svg width="21" height="21" viewBox="0 0 21 21" fill="none" xmlns="http://www.w3.org/2000/svg">
<g clip-path="url(#clip0_1_27)">
<path d="M20.9864 17.2838C20.9196 16.7792 20.6283 16.3441 20.1872 16.0902L15.0064 13.1073C14.3719 12.7419 13.567 12.8483 13.049 13.3662L12.0286 14.3866C11.757 14.6582 11.3274 14.6822 11.0295 14.4424C10.225 13.7951 9.43294 13.0827 8.67527 12.325C7.91761 11.5674 7.20521 10.7753 6.55785 9.9708C6.31806 9.67282 6.34205 9.24325 6.61368 8.97166L7.63409 7.95121C8.15196 7.43339 8.25846 6.62851 7.89303 5.99385L4.91013 0.813074C4.65614 0.371947 4.22109 0.0806735 3.71646 0.0139102C3.21179 -0.0529891 2.71592 0.115325 2.35598 0.475266L0.818382 2.01291C-0.254775 3.08611 -0.27201 5.04919 0.769852 7.54061C1.77166 9.9362 3.64122 12.5733 6.03404 14.9663C8.42695 17.3591 11.0641 19.2287 13.4597 20.2305C14.6861 20.7433 15.7843 20.9996 16.7116 20.9995C17.668 20.9995 18.4425 20.7268 18.9874 20.1819L20.525 18.6443C20.8849 18.2843 21.0531 17.7885 20.9864 17.2838ZM14.667 13.6968L19.8478 16.6797C20.104 16.8272 20.2732 17.08 20.3119 17.373C20.3445 17.619 20.2806 17.8612 20.1357 18.0564L13.2505 14.1269L13.5301 13.8472C13.8309 13.5465 14.2985 13.4847 14.667 13.6968ZM3.6272 0.688392C3.92034 0.727171 4.17301 0.896347 4.32051 1.15256L7.3034 6.33334C7.51567 6.70194 7.4538 7.16946 7.15305 7.47017L6.8962 7.72702L2.9451 0.864598C3.10661 0.744995 3.29978 0.680046 3.50116 0.680046C3.54293 0.680046 3.58507 0.682813 3.6272 0.688392ZM18.5063 19.7008C17.6537 20.5534 15.91 20.5177 13.7222 19.6028C11.4064 18.6343 8.8469 16.8169 6.51517 14.4852C4.18344 12.1534 2.36596 9.59394 1.39753 7.27814C0.48257 5.09032 0.446875 3.34659 1.29947 2.49395L2.44093 1.35244L6.39797 8.22525L6.1326 8.49063C5.61486 9.0084 5.56978 9.82807 6.02778 10.3974C6.69038 11.2208 7.41929 12.0313 8.19414 12.8061C8.96908 13.581 9.7795 14.3099 10.6029 14.9725C11.1721 15.4305 11.9918 15.3855 12.5097 14.8677L12.7518 14.6255L19.6465 18.5605L18.5063 19.7008Z" fill="white"/>
</g>
<defs>
<clipPath id="clip0_1_27">
<rect width="21" height="21" fill="white"/>
</clipPath>
</defs>
</svg>
