<svg width="100" height="78" viewBox="0 0 100 78" fill="none" xmlns="http://www.w3.org/2000/svg">
<path d="M25 74.0013H1.6666C0.744922 74.0013 0 74.748 0 75.6679C0 76.5879 0.744922 77.3345 1.6666 77.3345H25C25.9217 77.3345 26.6666 76.5879 26.6666 75.6679C26.6666 74.748 25.9217 74.0013 25 74.0013Z" fill="#D4C17F"/>
<path d="M20 70.6647C31.0284 70.6647 40 61.6912 40 50.6647C40 45.143 37.7983 40.0014 33.8 36.1863C33.1368 35.5529 32.0784 35.5779 31.4434 36.2414C30.8084 36.908 30.8334 37.9631 31.4985 38.5981C34.8301 41.7781 36.6668 46.0613 36.6668 50.6647C36.6668 59.8547 29.1901 67.3313 20.0002 67.3313C10.8104 67.3313 3.33364 59.8545 3.33364 50.6647C3.33364 41.4731 10.8104 33.9981 20.0002 33.9981C20.9219 33.9981 21.6668 33.2514 21.6668 32.3315C21.6668 31.4098 20.9219 30.6649 20.0002 30.6649C8.97192 30.6649 0.000244144 39.6365 0.000244144 50.6649C4.88314e-05 61.6912 8.97173 70.6647 20 70.6647Z" fill="#D4C17F"/>
<path d="M28.3334 23.9979H29.1783L19.55 47.3762C17.9268 47.5979 16.6666 48.9795 16.6666 50.6645C16.6666 52.5028 18.1615 53.9979 20 53.9979C21.8383 53.9979 23.3334 52.503 23.3334 50.6645C23.3334 49.9012 23.0668 49.2078 22.6334 48.6446L32.0385 25.8078L42.5869 41.1229C43.1069 41.8813 44.142 42.0744 44.9035 41.5512C45.6635 41.028 45.8535 39.9912 45.3303 39.2328L34.8369 23.9979H38.3336C41.0903 23.9979 43.3336 21.7545 43.3336 18.9979C43.3336 16.2395 41.0903 13.9979 38.3336 13.9979H28.3336C27.4119 13.9979 26.667 14.7428 26.667 15.6645V22.3311C26.6666 23.2514 27.4117 23.9979 28.3334 23.9979ZM30 17.3313H38.3334C39.2533 17.3313 40 18.0779 40 18.9979C40 19.9162 39.2533 20.6645 38.3334 20.6645H30V17.3313Z" fill="#D4C17F"/>
<path d="M78.3334 32.3313C78.3334 33.2512 79.0783 33.9979 80 33.9979C89.19 33.9979 96.6666 41.4729 96.6666 50.6645C96.6666 59.8545 89.1898 67.3311 80 67.3311C70.8102 67.3311 63.3334 59.8543 63.3334 50.6645C63.3334 45.6696 65.5451 40.9811 69.4051 37.7979C70.1135 37.2129 70.215 36.1629 69.6283 35.453C69.0434 34.7446 67.9949 34.6397 67.2816 35.2264C62.6549 39.0448 60 44.6698 60 50.6647C60 61.6912 68.9717 70.6647 80 70.6647C91.0283 70.6647 100 61.6912 100 50.6647C100 39.6364 91.0283 30.6647 80 30.6647C79.0783 30.6647 78.3334 31.4096 78.3334 32.3313Z" fill="#D4C17F"/>
<path d="M51.6666 74.0013H35C34.0783 74.0013 33.3334 74.748 33.3334 75.6679C33.3334 76.5879 34.0783 77.3345 35 77.3345H51.6666C52.5883 77.3345 53.3332 76.5879 53.3332 75.6679C53.3334 74.748 52.5883 74.0013 51.6666 74.0013Z" fill="#D4C17F"/>
<path d="M51.6667 42.568V37.3313C52.5883 37.3313 53.3333 36.5846 53.3333 35.6647C53.3333 34.743 52.5883 33.998 51.6667 33.998H48.3333C47.4116 33.998 46.6667 34.743 46.6667 35.6647C46.6667 36.5846 47.4116 37.3313 48.3333 37.3313V42.568C45.4649 43.3129 43.3333 45.8996 43.3333 48.9981C43.3333 52.0947 45.4649 54.6815 48.3333 55.4281V60.6649C47.4116 60.6649 46.6667 61.4098 46.6667 62.3315C46.6667 63.2514 47.4116 63.9981 48.3333 63.9981H51.6667C52.5883 63.9981 53.3333 63.2514 53.3333 62.3315C53.3333 61.4098 52.5883 60.6649 51.6667 60.6649V55.4281C54.535 54.6815 56.6667 52.0947 56.6667 48.9981C56.6667 45.8996 54.535 43.3129 51.6667 42.568ZM50.0001 52.3313C48.1633 52.3313 46.6667 50.8363 46.6667 48.9979C46.6667 47.1596 48.1633 45.6645 50.0001 45.6645C51.8383 45.6645 53.3334 47.1594 53.3334 48.9979C53.3334 50.8363 51.8383 52.3313 50.0001 52.3313Z" fill="#D4C17F"/>
<path d="M77.4316 48.5647C76.9617 49.1397 76.6665 49.8647 76.6665 50.6647C76.6665 52.5029 78.1632 53.9981 79.9999 53.9981C81.8367 53.9981 83.3333 52.5031 83.3333 50.6647C83.3333 49.0147 82.1249 47.6514 80.5517 47.3863L73.03 27.3313H84.9283C86.9232 27.3313 88.0833 25.7363 88.3015 24.3246L89.9665 15.9912C90.0648 15.5012 89.9382 14.993 89.6216 14.6078C89.305 14.2211 88.8333 13.9979 88.3333 13.9979H73.3333C72.4117 13.9979 71.6667 14.7428 71.6667 15.6645C71.6667 16.5844 72.4117 17.3311 73.3333 17.3311H86.2999L85.0267 23.7078C85.0017 23.8229 84.93 23.9846 84.9285 23.9979H71.7802L66.5619 10.0795C66.5585 10.0729 66.5535 10.0695 66.5519 10.0629C66.5486 10.0563 66.5501 10.0496 66.5486 10.0445L63.2152 1.71114C62.8736 0.856066 61.8953 0.446104 61.0486 0.782823C60.1935 1.12442 59.7769 2.09454 60.1185 2.94942L63.1552 10.5344L56.8869 21.5043C56.4285 22.3027 56.7068 23.3209 57.5068 23.7777C57.7667 23.926 58.0517 23.9977 58.3318 23.9977C58.9119 23.9977 59.4734 23.6961 59.78 23.1576L64.6867 14.5727L68.6966 25.2676L55.9949 39.5559C55.3816 40.2441 55.4449 41.2975 56.1331 41.9092C56.4498 42.1926 56.8449 42.3309 57.2398 42.3309C57.6982 42.3309 58.1564 42.1408 58.4847 41.7709L70.0197 28.7959L77.4316 48.5647Z" fill="#D4C17F"/>
<path d="M98.3334 74.0013H71.6666C70.7449 74.0013 70 74.748 70 75.6679C70 76.5879 70.7449 77.3345 71.6666 77.3345H98.3332C99.2549 77.3345 99.9998 76.5879 99.9998 75.6679C100 74.748 99.2551 74.0013 98.3334 74.0013Z" fill="#D4C17F"/>
<path d="M65 74.0013H61.6666C60.7449 74.0013 60 74.748 60 75.6679C60 76.5879 60.7449 77.3345 61.6666 77.3345H65C65.9217 77.3345 66.6666 76.5879 66.6666 75.6679C66.6666 74.748 65.9217 74.0013 65 74.0013Z" fill="#D4C17F"/>
</svg>
