<svg width="121" height="61" viewBox="0 0 121 61" fill="none" xmlns="http://www.w3.org/2000/svg">
<path d="M1.44141 37V12.3906H14.2383V15.4141H4.5V23.2188H10.9336V26.2773H4.5V33.9766H14.2383V37H1.44141ZM16.9453 37V23.1133C16.9453 21.9883 17.4492 20.8867 18.457 19.8086C19.6992 18.543 21.2344 17.9102 23.0625 17.9102V20.8281C21.8672 20.8281 20.9531 21.2969 20.3203 22.2344C20.0625 22.6328 19.9336 23.043 19.9336 23.4648V37H16.9453ZM24.6094 20.8281V17.9102C26.7891 17.9102 28.4883 18.7891 29.707 20.5469C30.3633 21.4609 30.6914 22.3164 30.6914 23.1133V37H27.7031V23.4648C27.7031 22.7383 27.3398 22.0938 26.6133 21.5312C26.0273 21.0625 25.3594 20.8281 24.6094 20.8281ZM33.3984 31.7969V23.0781C33.4219 22 33.9375 20.9336 34.9453 19.8789C36.1641 18.6367 37.6406 18.0039 39.375 17.9805V20.7578C38.25 20.7578 37.3711 21.25 36.7383 22.2344C36.4805 22.6562 36.3516 23.043 36.3516 23.3945V25.7852H44.2266V23.3945C44.2266 22.3398 43.6875 21.5664 42.6094 21.0742C42.1172 20.8398 41.6133 20.7227 41.0977 20.7227V17.9805C42.7148 17.9805 44.1562 18.5547 45.4219 19.7031C46.4766 20.7109 47.0156 21.8242 47.0391 23.043V28.6328H36.3516V31.7969C36.3516 32.4531 36.7266 33.0625 37.4766 33.625C38.0859 34.0469 38.7305 34.2578 39.4102 34.2578V37C37.2773 37 35.6016 36.1328 34.3828 34.3984C33.7266 33.4844 33.3984 32.6172 33.3984 31.7969ZM41.0977 37V34.2227C42.5039 34.2227 43.5586 33.6133 44.2617 32.3945C44.4023 32.1367 44.5078 31.8906 44.5781 31.6562L47.0742 32.5703C46.6523 34.1875 45.6914 35.4062 44.1914 36.2266C43.2305 36.7422 42.1992 37 41.0977 37ZM49.957 37V17.9805H52.9453V20.582C53.5547 19.5508 54.4688 18.7891 55.6875 18.2969C56.3438 18.0391 56.9883 17.9102 57.6211 17.9102H58.2539L57.5508 20.793C56.2617 20.8164 55.1133 21.5078 54.1055 22.8672C53.332 23.9453 52.9453 25.0586 52.9453 26.207V37H49.957ZM59.6602 43.5039L60.3984 40.7617H67.0078C68.3203 40.7148 69.2812 40.1992 69.8906 39.2148C70.0781 38.8867 70.1719 38.5938 70.1719 38.3359V35.8047C69.2109 36.4844 68.25 36.8477 67.2891 36.8945V34.1875C68.3203 34.1875 69.1406 33.7539 69.75 32.8867C70.0312 32.4883 70.1719 32.0898 70.1719 31.6914V23.0781C70.1719 22.1875 69.6797 21.4844 68.6953 20.9688C68.2266 20.7344 67.7578 20.6172 67.2891 20.6172V17.8398C68.3438 17.8398 69.2695 18.168 70.0664 18.8242C70.1133 18.8477 70.1484 18.8711 70.1719 18.8945V17.8398H73.0195V38.3359C73.0195 39.3438 72.5625 40.3867 71.6484 41.4648C70.5 42.8008 69.082 43.4805 67.3945 43.5039H59.6602ZM60.0117 31.7266V22.9375C60.0352 21.8359 60.5273 20.7578 61.4883 19.7031C62.6367 18.4844 64.0547 17.8633 65.7422 17.8398V20.6172C64.5938 20.6172 63.7266 21.1094 63.1406 22.0938C62.9297 22.4453 62.8242 22.7617 62.8242 23.043V31.6914C62.8242 32.3945 63.1875 33.0156 63.9141 33.5547C64.4531 33.9297 65.0625 34.1172 65.7422 34.1172V36.8945C63.5859 36.8711 61.9453 35.957 60.8203 34.1523C60.2812 33.2852 60.0117 32.4766 60.0117 31.7266ZM74.5664 17.9805H77.6953L83.0391 32.8516L79.418 43.6797H76.4297L79.875 32.8164L74.5664 17.9805ZM82.3359 26.1367L85.5352 17.9805H88.6289L83.9531 30.25H83.6367L82.3359 26.1367ZM90.1758 36.9648V12.3906H102.973V15.4141H93.2344V23.2188H99.668V26.2773H93.2344V36.9648H90.1758ZM105.75 15.3789C105.75 14.6523 106.09 14.1367 106.77 13.832C107.004 13.7383 107.238 13.6914 107.473 13.6914C108.176 13.6914 108.691 14.0195 109.02 14.6758C109.113 14.9102 109.16 15.1445 109.16 15.3789C109.16 16.082 108.832 16.5977 108.176 16.9258C107.941 17.0195 107.707 17.0664 107.473 17.0664C106.746 17.0664 106.219 16.7383 105.891 16.082C105.797 15.8477 105.75 15.6133 105.75 15.3789ZM105.996 37V18.4727H108.949V37H105.996ZM111.375 21.0391V18.1914H113.695V12.1094H116.684V18.1914H118.934V21.0742H116.684V31.1641C116.684 32.8281 117.363 33.7539 118.723 33.9414C118.98 33.9883 119.238 34.0117 119.496 34.0117H119.988L120.656 37H119.391C116.508 36.9766 114.738 35.8984 114.082 33.7656C113.848 32.9688 113.73 31.9844 113.73 30.8125L113.695 21.0391H111.375Z" fill="white"/>
<path d="M17.78 60.556V58H17.504C16.888 58 16.352 57.856 15.896 57.568C15.44 57.28 15.088 56.904 14.84 56.44C14.592 55.968 14.468 55.452 14.468 54.892C14.468 54.324 14.592 53.804 14.84 53.332C15.096 52.86 15.452 52.48 15.908 52.192C16.364 51.904 16.896 51.76 17.504 51.76H17.78V49.24H18.596V51.76H18.872C19.48 51.76 20.012 51.904 20.468 52.192C20.924 52.48 21.276 52.86 21.524 53.332C21.78 53.804 21.908 54.324 21.908 54.892C21.908 55.452 21.784 55.968 21.536 56.44C21.288 56.904 20.936 57.28 20.48 57.568C20.024 57.856 19.488 58 18.872 58H18.596V60.556H17.78ZM17.504 57.316H17.804V52.444H17.504C17.072 52.444 16.688 52.556 16.352 52.78C16.016 52.996 15.752 53.292 15.56 53.668C15.368 54.036 15.272 54.448 15.272 54.904C15.272 55.352 15.364 55.76 15.548 56.128C15.74 56.496 16.004 56.788 16.34 57.004C16.676 57.212 17.064 57.316 17.504 57.316ZM18.56 57.316H18.872C19.312 57.316 19.7 57.212 20.036 57.004C20.372 56.788 20.632 56.496 20.816 56.128C21.008 55.76 21.104 55.352 21.104 54.904C21.104 54.448 21.008 54.036 20.816 53.668C20.624 53.292 20.36 52.996 20.024 52.78C19.696 52.556 19.312 52.444 18.872 52.444H18.56V57.316ZM24.7069 58V51.76H25.5229V56.896L29.3269 51.748H30.0589V58H29.2429V52.948L25.4989 58H24.7069ZM34.8439 58V52.48H32.6119V51.748H37.8919V52.48H35.6599V58H34.8439ZM40.4307 58V51.748H41.2467V54.436H44.8227V51.748H45.6387V58H44.8227V55.168H41.2467V58H40.4307ZM51.5788 58.12C51.1308 58.12 50.7148 58.036 50.3308 57.868C49.9468 57.692 49.6148 57.456 49.3348 57.16C49.0548 56.856 48.8348 56.508 48.6748 56.116C48.5228 55.724 48.4468 55.304 48.4468 54.856C48.4468 54.272 48.5788 53.736 48.8428 53.248C49.1148 52.76 49.4868 52.372 49.9588 52.084C50.4308 51.788 50.9668 51.64 51.5668 51.64C52.1828 51.64 52.7188 51.788 53.1748 52.084C53.6388 52.38 54.0028 52.772 54.2668 53.26C54.5308 53.74 54.6628 54.268 54.6628 54.844C54.6628 54.908 54.6628 54.972 54.6628 55.036C54.6628 55.092 54.6588 55.136 54.6508 55.168H49.2988C49.3388 55.616 49.4628 56.016 49.6708 56.368C49.8868 56.712 50.1628 56.988 50.4988 57.196C50.8428 57.396 51.2148 57.496 51.6148 57.496C52.0228 57.496 52.4068 57.392 52.7668 57.184C53.1348 56.976 53.3908 56.704 53.5348 56.368L54.2428 56.56C54.1148 56.856 53.9188 57.124 53.6548 57.364C53.3908 57.604 53.0788 57.792 52.7188 57.928C52.3668 58.056 51.9868 58.12 51.5788 58.12ZM49.2748 54.58H53.8948C53.8628 54.124 53.7388 53.724 53.5228 53.38C53.3148 53.036 53.0388 52.768 52.6948 52.576C52.3588 52.376 51.9868 52.276 51.5788 52.276C51.1708 52.276 50.7988 52.376 50.4628 52.576C50.1268 52.768 49.8508 53.04 49.6348 53.392C49.4268 53.736 49.3068 54.132 49.2748 54.58ZM60.0737 58.12C59.6177 58.12 59.1977 58.036 58.8137 57.868C58.4377 57.692 58.1057 57.452 57.8177 57.148C57.5377 56.844 57.3177 56.496 57.1577 56.104C57.0057 55.712 56.9297 55.296 56.9297 54.856C56.9297 54.264 57.0617 53.724 57.3257 53.236C57.5897 52.748 57.9577 52.36 58.4297 52.072C58.9017 51.784 59.4457 51.64 60.0617 51.64C60.6457 51.64 61.1617 51.776 61.6097 52.048C62.0577 52.312 62.3897 52.672 62.6057 53.128L61.8137 53.38C61.6377 53.06 61.3897 52.812 61.0697 52.636C60.7577 52.452 60.4097 52.36 60.0257 52.36C59.6097 52.36 59.2297 52.468 58.8857 52.684C58.5417 52.9 58.2657 53.196 58.0577 53.572C57.8577 53.948 57.7577 54.376 57.7577 54.856C57.7577 55.328 57.8617 55.756 58.0697 56.14C58.2777 56.524 58.5537 56.832 58.8977 57.064C59.2417 57.288 59.6217 57.4 60.0377 57.4C60.3097 57.4 60.5697 57.352 60.8177 57.256C61.0737 57.16 61.2937 57.032 61.4777 56.872C61.6697 56.704 61.7977 56.524 61.8617 56.332L62.6657 56.572C62.5537 56.868 62.3657 57.136 62.1017 57.376C61.8457 57.608 61.5417 57.792 61.1897 57.928C60.8457 58.056 60.4737 58.12 60.0737 58.12ZM65.2325 55.108V54.352H68.7365V55.108H65.2325ZM71.843 58V51.748H72.659V54.424H73.595L75.695 51.748H76.631L74.243 54.784L76.931 58H75.971L73.595 55.18H72.659V58H71.843ZM78.9294 58.036V57.292C79.1454 57.292 79.3374 57.236 79.5054 57.124C79.6734 57.004 79.8214 56.804 79.9494 56.524C80.0854 56.244 80.1934 55.86 80.2734 55.372C80.3534 54.876 80.4054 54.248 80.4294 53.488L80.5014 51.748H84.5574V58H83.7414V52.48H81.2214L81.1974 53.56C81.1654 54.424 81.0974 55.148 80.9934 55.732C80.8894 56.308 80.7414 56.764 80.5494 57.1C80.3654 57.436 80.1374 57.676 79.8654 57.82C79.5934 57.964 79.2814 58.036 78.9294 58.036ZM88.4854 60.616C88.3494 60.616 88.2094 60.592 88.0654 60.544C87.9294 60.504 87.7894 60.444 87.6454 60.364L87.9454 59.788C88.0334 59.836 88.1134 59.876 88.1854 59.908C88.2654 59.94 88.3494 59.956 88.4374 59.956C88.6454 59.956 88.8414 59.852 89.0254 59.644C89.2094 59.436 89.3854 59.132 89.5534 58.732L89.8654 57.952L87.0814 51.748H87.9454L90.2374 57.16L92.3494 51.748H93.1654L90.1894 58.984C90.0294 59.36 89.8614 59.668 89.6854 59.908C89.5094 60.148 89.3214 60.324 89.1214 60.436C88.9214 60.556 88.7094 60.616 88.4854 60.616ZM98.6133 58.12C97.6053 58.12 96.8413 57.812 96.3213 57.196C95.8093 56.572 95.5533 55.712 95.5533 54.616C95.5533 53.84 95.6173 53.184 95.7453 52.648C95.8733 52.112 96.0613 51.672 96.3093 51.328C96.5573 50.976 96.8613 50.688 97.2213 50.464C97.5893 50.24 98.0093 50.056 98.4813 49.912L101.109 49.048L101.181 49.756L98.6493 50.584C98.1693 50.744 97.7693 50.948 97.4493 51.196C97.1293 51.444 96.8773 51.76 96.6933 52.144C96.5173 52.52 96.4013 53.012 96.3453 53.62C96.5533 53.156 96.8733 52.8 97.3053 52.552C97.7373 52.296 98.2373 52.168 98.8053 52.168C99.4133 52.168 99.9293 52.292 100.353 52.54C100.785 52.788 101.113 53.132 101.337 53.572C101.561 54.012 101.673 54.52 101.673 55.096C101.673 55.704 101.553 56.236 101.313 56.692C101.081 57.14 100.737 57.492 100.281 57.748C99.8333 57.996 99.2773 58.12 98.6133 58.12ZM98.6133 57.4C99.3253 57.4 99.8733 57.196 100.257 56.788C100.649 56.372 100.845 55.82 100.845 55.132C100.845 54.46 100.653 53.912 100.269 53.488C99.8933 53.064 99.3413 52.852 98.6133 52.852C98.1973 52.852 97.8213 52.94 97.4853 53.116C97.1493 53.292 96.8813 53.548 96.6813 53.884C96.4893 54.22 96.3933 54.636 96.3933 55.132C96.3933 55.564 96.4773 55.952 96.6453 56.296C96.8213 56.64 97.0733 56.912 97.4013 57.112C97.7293 57.304 98.1333 57.4 98.6133 57.4Z" fill="white"/>
</svg>
